#!OML:ASF X:\für Bonn\!DataBase\2005_08_10_Bjorn_Final\c3d\bjorn.ASF
:FULLY-SPECIFIED
:DEGREES
155
root -3.41403 19.3398 -1.46542 630.315 82.7796 -84.1455
lowerback 2.99145 1.62798 -4.09619
upperback 11.227 3.09346 -2.27574
thorax 10.1987 1.5175 0.0696076
lowerneck 3.74896 -2.99489 -2.16227
upperneck 21.6866 -4.21495 6.11796
head 6.11973 -1.49322 2.18195
rclavicle -7.95139e-015 3.33958e-014
rhumerus -31.038 -20.4237 -80.5397
rradius 31.6975
rwrist 6.96534
rhand -10.1178 15.8913
rfingers 7.12502
rthumb 15.8702 -13.4783
lclavicle -7.95139e-015 3.33958e-014
lhumerus -8.75442 4.97866 56.4888
lradius 49.7394
lwrist -13.5603
lhand -35.8607 -13.4353
lfingers 7.12502
lthumb -8.97543 16.3538
rfemur -40.4175 -15.869 14.9191
rtibia 97.8375
rfoot -2.42559 24.9276
rtoes -19.566
lfemur -6.78895 0.909372 -10.3454
ltibia 29.9919
lfoot -11.0716 -5.85946
ltoes -5.20765
156
root -3.36451 19.3277 -1.46723 628.739 82.6754 -85.5045
lowerback 3.0767 1.63951 -4.15629
upperback 11.2645 3.12082 -2.3356
thorax 10.1927 1.53249 0.0381593
lowerneck 3.76993 -3.04839 -2.07171
upperneck 21.7326 -4.31028 6.25698
head 6.13604 -1.5206 2.20805
rclavicle 1.90833e-014 -9.54166e-015
rhumerus -31.0139 -20.463 -80.5437
rradius 31.5076
rwrist 6.99537
rhand -10.0961 15.8657
rfingers 7.12502
rthumb 15.8911 -13.5023
lclavicle 1.90833e-014 -9.54166e-015
lhumerus -8.33472 5.17929 56.8219
lradius 49.8137
lwrist -13.6719
lhand -35.8422 -13.5007
lfingers 7.12502
lthumb -8.95751 16.2892
rfemur -41.2609 -16.1161 15.0705
rtibia 98.0353
rfoot -2.87792 25.3457
rtoes -19.0249
lfemur -6.48625 0.618922 -10.278
ltibia 30.1723
lfoot -11.3796 -5.71771
ltoes -5.1567
157
root -3.31539 19.3163 -1.46858 627.378 82.5646 -86.6583
lowerback 3.16078 1.65414 -4.21791
upperback 11.2964 3.15082 -2.38967
thorax 10.1804 1.54816 0.0137411
lowerneck 3.75791 -3.08876 -2.01522
upperneck 21.8079 -4.39184 6.41797
head 6.16778 -1.541 2.24744
rclavicle 2.38542e-014 3.49861e-014
rhumerus -30.9869 -20.4602 -80.5529
rradius 31.3143
rwrist 7.06454
rhand -10.1358 15.8451
rfingers 7.12502
rthumb 15.8529 -13.5259
lclavicle 2.38542e-014 3.49861e-014
lhumerus -7.91502 5.41179 57.1784
lradius 49.8491
lwrist -13.7365
lhand -35.8412 -13.6887
lfingers 7.12502
lthumb -8.95657 16.1012
rfemur -42.0689 -16.2834 15.2494
rtibia 98.0888
rfoot -3.29118 25.6352
rtoes -18.4582
lfemur -6.19772 0.312077 -10.2131
ltibia 30.3682
lfoot -11.7125 -5.51269
ltoes -5.4046
158
root -3.26819 19.3032 -1.46954 626.103 82.4652 -87.7277
lowerback 3.25943 1.67029 -4.30395
upperback 11.3225 3.1807 -2.43319
thorax 10.1513 1.56112 0.0133019
lowerneck 3.79246 -3.12506 -1.9905
upperneck 21.8541 -4.46828 6.59379
head 6.18314 -1.56177 2.2977
rclavicle 1.59028e-015 2.8625e-014
rhumerus -30.9676 -20.4455 -80.5407
rradius 31.1317
rwrist 7.12148
rhand -10.1686 15.8706
rfingers 7.12502
rthumb 15.8213 -13.5029
lclavicle 1.59028e-015 2.8625e-014
lhumerus -7.51765 5.57934 57.5371
lradius 49.869
lwrist -13.7178
lhand -35.8869 -13.8895
lfingers 7.12502
lthumb -9.00062 15.8985
rfemur -42.838 -16.3914 15.4369
rtibia 97.9926
rfoot -3.67202 25.8111
rtoes -17.7225
lfemur -5.91961 -0.031044 -10.1636
ltibia 30.5641
lfoot -12.0075 -5.3134
ltoes -5.24696
159
root -3.22143 19.2906 -1.47086 624.883 82.3437 -88.7697
lowerback 3.33819 1.68799 -4.34109
upperback 11.3463 3.21422 -2.49771
thorax 10.1345 1.5813 -0.0356688
lowerneck 3.78859 -3.1707 -1.86648
upperneck 21.9088 -4.55143 6.71537
head 6.2052 -1.58083 2.31285
rclavicle 2.94201e-014 -3.65764e-014
rhumerus -30.9289 -20.4167 -80.5717
rradius 30.946
rwrist 7.19238
rhand -10.2453 15.8681
rfingers 7.12502
rthumb 15.7474 -13.5112
lclavicle 2.94201e-014 -3.65764e-014
lhumerus -7.10342 5.74535 57.8658
lradius 49.8996
lwrist -13.6927
lhand -35.8998 -14.201
lfingers 7.12502
lthumb -9.01314 15.5865
rfemur -43.5509 -16.4345 15.6614
rtibia 97.7346
rfoot -3.96386 25.922
rtoes -16.9062
lfemur -5.66557 -0.324357 -10.094
ltibia 30.7379
lfoot -12.2917 -5.13045
ltoes -5.59009
160
root -3.17328 19.2815 -1.47119 623.858 82.198 -89.592
lowerback 3.43503 1.7139 -4.37273
upperback 11.376 3.25563 -2.53601
thorax 10.112 1.60452 -0.0600309
lowerneck 3.79848 -3.21775 -1.77787
upperneck 21.961 -4.63477 6.83267
head 6.22488 -1.60322 2.33281
rclavicle -2.46493e-014 7.95139e-015
rhumerus -30.888 -20.4175 -80.5607
rradius 30.758
rwrist 7.27812
rhand -10.3321 15.9185
rfingers 7.12502
rthumb 15.6638 -13.4674
lclavicle -2.46493e-014 7.95139e-015
lhumerus -6.70658 5.9197 58.2326
lradius 49.9161
lwrist -13.7304
lhand -35.9216 -14.3884
lfingers 7.12502
lthumb -9.03411 15.3981
rfemur -44.1408 -16.4045 15.9135
rtibia 97.311
rfoot -4.18163 25.9973
rtoes -16.1797
lfemur -5.36691 -0.596801 -9.99593
ltibia 30.8818
lfoot -12.5754 -4.95154
ltoes -5.67232
161
root -3.12484 19.2733 -1.47128 622.611 82.0889 -90.6632
lowerback 3.49526 1.73608 -4.44117
upperback 11.4017 3.29567 -2.58382
thorax 10.1061 1.62377 -0.0729658
lowerneck 3.84855 -3.25969 -1.69873
upperneck 21.9738 -4.71409 6.98062
head 6.22571 -1.62408 2.36476
rclavicle 3.18055e-014 -4.29375e-014
rhumerus -30.8596 -20.4444 -80.535
rradius 30.5727
rwrist 7.38474
rhand -10.3771 15.9551
rfingers 7.12502
rthumb 15.6205 -13.4342
lclavicle 3.18055e-014 -4.29375e-014
lhumerus -6.30206 6.09984 58.6177
lradius 49.9241
lwrist -13.8372
lhand -35.972 -14.5607
lfingers 7.12502
lthumb -9.08278 15.2238
rfemur -44.672 -16.3647 16.1267
rtibia 96.7529
rfoot -4.33624 26.0485
rtoes -15.4264
lfemur -5.0798 -0.928485 -9.94659
ltibia 31.0038
lfoot -12.8497 -4.77012
ltoes -5.67858
162
root -3.07508 19.2654 -1.47207 621.502 81.9611 -91.6135
lowerback 3.51523 1.7638 -4.4658
upperback 11.437 3.3461 -2.63418
thorax 10.1368 1.65154 -0.110551
lowerneck 3.88356 -3.30712 -1.6028
upperneck 21.9727 -4.80439 7.14501
head 6.22523 -1.64817 2.39835
rclavicle -5.56597e-015 1.43125e-014
rhumerus -30.8052 -20.547 -80.5125
rradius 30.3738
rwrist 7.54463
rhand -10.4778 16.017
rfingers 7.12502
rthumb 15.5235 -13.3798
lclavicle -5.56597e-015 1.43125e-014
lhumerus -5.8678 6.26272 59.0162
lradius 49.9063
lwrist -13.9319
lhand -36.0223 -14.7453
lfingers 7.12502
lthumb -9.13128 15.037
rfemur -45.1457 -16.3094 16.355
rtibia 96.0685
rfoot -4.52639 26.1126
rtoes -15.0723
lfemur -4.79874 -1.22801 -9.87945
ltibia 31.1093
lfoot -13.1207 -4.60204
ltoes -5.7269
